Coordinates
version=1
nRows=11
nColumns=63
inDegrees=yes

Units are S.I. units (second, meters, Newtons, ...)
If the header above contains a line with 'inDegrees', this indicates whether rotational values are in degrees (yes) or radians (no).

endheader
time	pelvis_tilt	pelvis_list	pelvis_rotation	pelvis_tx	pelvis_ty	pelvis_tz	hip_flexion_r	hip_adduction_r	hip_rotation_r	knee_angle_r	knee_angle_r_beta	ankle_angle_r	subtalar_angle_r	mtp_angle_r	hip_flexion_l	hip_adduction_l	hip_rotation_l	knee_angle_l	knee_angle_l_beta	ankle_angle_l	subtalar_angle_l	mtp_angle_l	L5_S1_Flex_Ext	L5_S1_Lat_Bending	L5_S1_axial_rotation	L4_L5_Flex_Ext	L4_L5_Lat_Bending	L4_L5_axial_rotation	L3_L4_Flex_Ext	L3_L4_Lat_Bending	L3_L4_axial_rotation	L2_L3_Flex_Ext	L2_L3_Lat_Bending	L2_L3_axial_rotation	L1_L2_Flex_Ext	L1_L2_Lat_Bending	L1_L2_axial_rotation	L1_T12_Flex_Ext	L1_T12_Lat_Bending	L1_T12_axial_rotation	Abs_r3	Abs_r2	Abs_r1	Abs_t1	Abs_t2	neck_flexion	neck_bending	neck_rotation	arm_flex_r	arm_add_r	arm_rot_r	elbow_flex_r	pro_sup_r	wrist_flex_r	wrist_dev_r	arm_flex_l	arm_add_l	arm_rot_l	elbow_flex_l	pro_sup_l	wrist_flex_l	wrist_dev_l
4.303571	4.570366	-4.653334	85.395086	0.091804	0.713091	0.739824	-4.780046	2.515369	3.630462	10.363992	0.180886	36.494266	14.430316	0.000000	-5.202681	-1.683751	-7.196106	12.329926	0.215198	36.793658	-3.425369	0.000000	-0.298739	-0.111899	0.266993	-0.554788	-0.148826	0.283680	-0.490799	-0.272072	0.283680	-0.341429	-0.272072	0.233619	-0.277409	-0.228185	0.216932	-0.170700	-0.173332	0.200245	-2.133864	-1.265829	1.484935	0.000000	0.000000	11.371903	-1.883716	-10.198153	-7.846470	-20.169668	7.119798	35.758889	88.153155	0.168364	2.044594	-4.946077	-17.027395	21.232564	43.937425	87.935117	-8.462554	-6.252732
4.321429	4.602072	-4.783559	85.423638	0.092666	0.713344	0.739455	-4.847241	2.620329	3.810795	10.067334	0.175708	36.106107	14.256815	0.000000	-5.103242	-1.833188	-7.472516	12.311176	0.214871	36.670583	-2.885011	0.000000	-0.290334	-0.120555	0.245723	-0.539180	-0.160339	0.261081	-0.476990	-0.293118	0.261081	-0.331823	-0.293118	0.215008	-0.269604	-0.245836	0.199650	-0.165897	-0.186740	0.184293	-2.073829	-1.363746	1.366640	0.000000	0.000000	11.766350	-1.576807	-10.808343	-8.061039	-20.234075	4.725101	37.202055	88.799621	0.786187	1.885081	-5.048642	-17.005700	20.392209	44.455117	87.922255	-8.648014	-6.673418
4.339286	4.603387	-4.980016	85.536719	0.093435	0.713700	0.739593	-4.832286	2.703302	3.882469	9.754779	0.170253	35.642322	14.083080	0.000000	-4.879017	-1.966267	-7.678169	12.312909	0.214901	36.498963	-2.343509	0.000000	-0.278785	-0.132441	0.204635	-0.517732	-0.176147	0.217424	-0.458016	-0.322017	0.217424	-0.318624	-0.322017	0.179055	-0.258880	-0.270074	0.166266	-0.159298	-0.205151	0.153476	-1.991335	-1.498199	1.138117	0.000000	0.000000	12.258695	-1.177756	-11.445582	-8.216351	-20.251459	1.620469	39.424795	89.083865	1.321691	2.609124	-5.065259	-17.010012	19.452908	45.155093	87.899461	-8.991406	-6.979287
4.357143	4.580945	-5.230997	85.744339	0.094071	0.714170	0.740252	-4.755114	2.772568	3.866190	9.403959	0.164130	35.093506	13.873738	0.000000	-4.546484	-2.088949	-7.831748	12.323497	0.215086	36.288752	-1.777542	0.000000	-0.264935	-0.145977	0.139632	-0.492011	-0.194149	0.148359	-0.435262	-0.354928	0.148359	-0.302795	-0.354928	0.122178	-0.246019	-0.297676	0.113451	-0.151384	-0.226118	0.104724	-1.892407	-1.651320	0.776593	0.000000	0.000000	12.807900	-0.692771	-12.072068	-8.276037	-20.299399	-2.003651	42.375773	88.749912	1.666358	4.012928	-5.008645	-17.028784	18.392790	46.041891	87.883376	-9.438223	-7.123097
4.375000	4.532614	-5.513935	86.028296	0.094584	0.714777	0.741480	-4.620092	2.822253	3.759425	9.040256	0.157782	34.488080	13.653310	0.000000	-4.130855	-2.194081	-7.945049	12.338196	0.215342	36.039550	-1.216702	0.000000	-0.251736	-0.160545	0.057589	-0.467499	-0.213524	0.061188	-0.413577	-0.390348	0.061188	-0.287709	-0.390348	0.050390	-0.233762	-0.327383	0.046791	-0.143842	-0.248684	0.043192	-1.798125	-1.816114	0.320292	0.000000	0.000000	13.359981	-0.183680	-12.677009	-8.210844	-20.396038	-6.060348	45.991062	88.038113	1.855844	6.009818	-4.844547	-17.097172	17.333494	47.095249	87.875982	-9.990339	-7.103275
4.392857	4.466245	-5.820697	86.413484	0.094917	0.715486	0.743237	-4.438027	2.861630	3.572477	8.661878	0.151178	33.841993	13.378980	0.000000	-3.638584	-2.288358	-8.005628	12.361742	0.215753	35.780458	-0.649937	0.000000	-0.239071	-0.174278	-0.049187	-0.443979	-0.231789	-0.052261	-0.392770	-0.423739	-0.052261	-0.273234	-0.423739	-0.043039	-0.222001	-0.355387	-0.039965	-0.136605	-0.269956	-0.036890	-1.707661	-1.971463	-0.273564	0.000000	0.000000	13.874088	0.341791	-13.173116	-7.982838	-20.616651	-10.311646	50.172397	86.791226	1.823328	8.463141	-4.620195	-17.222303	16.277250	48.335611	87.884654	-10.573294	-6.947638
4.410714	4.369686	-6.130693	86.823219	0.095144	0.716308	0.745473	-4.216289	2.867843	3.368543	8.290041	0.144689	33.181505	13.066309	0.000000	-3.123285	-2.342158	-8.063819	12.351009	0.215566	35.488468	-0.121965	0.000000	-0.229053	-0.188186	-0.169984	-0.425374	-0.250288	-0.180608	-0.376311	-0.457556	-0.180608	-0.261785	-0.457556	-0.148736	-0.212699	-0.383750	-0.138112	-0.130881	-0.291501	-0.127488	-1.636102	-2.128802	-0.945399	0.000000	0.000000	14.328557	0.864374	-13.550229	-7.507406	-21.007079	-14.468401	54.737244	85.017473	1.582742	11.158810	-4.360763	-17.396759	15.221311	49.737114	87.931663	-11.180305	-6.750556
4.428571	4.252983	-6.447994	87.312663	0.095143	0.717179	0.748103	-3.951795	2.851320	3.078529	7.936179	0.138512	32.525500	12.735878	0.000000	-2.566966	-2.363152	-8.023063	12.331937	0.215233	35.170566	0.315005	0.000000	-0.219480	-0.199413	-0.314204	-0.407597	-0.265219	-0.333842	-0.360584	-0.484853	-0.333842	-0.250844	-0.484853	-0.274928	-0.203809	-0.406643	-0.255291	-0.125411	-0.308891	-0.235653	-1.567726	-2.255799	-1.747507	0.000000	0.000000	14.710699	1.375870	-13.695689	-6.752561	-21.578244	-18.381732	59.551484	82.611173	1.235568	14.071889	-4.045466	-17.619883	14.250557	51.248464	87.998964	-11.707590	-6.492589
4.446429	4.129504	-6.741795	87.787097	0.095051	0.718096	0.750995	-3.684712	2.822453	2.858554	7.591080	0.132489	31.888858	12.329334	0.000000	-2.043364	-2.360155	-8.045322	12.265759	0.214078	34.866283	0.783756	0.000000	-0.213164	-0.207087	-0.467260	-0.395867	-0.275426	-0.496464	-0.350207	-0.503512	-0.496464	-0.243625	-0.503512	-0.408853	-0.197944	-0.422293	-0.379649	-0.121802	-0.320778	-0.350445	-1.522609	-2.342614	-2.598760	0.000000	0.000000	15.007887	1.867968	-13.634428	-5.625712	-22.389552	-21.630833	64.391797	79.635093	0.747488	17.068277	-3.648538	-17.908185	13.503068	52.807979	88.112251	-12.274087	-6.296773
4.464286	4.002729	-7.005779	88.247105	0.094826	0.719014	0.753995	-3.430186	2.775383	2.630852	7.254727	0.126619	31.296201	11.962543	0.000000	-1.567302	-2.323222	-8.026773	12.151317	0.212080	34.556119	1.148338	0.000000	-0.209367	-0.210269	-0.627487	-0.388815	-0.279658	-0.666705	-0.343969	-0.511249	-0.666705	-0.239285	-0.511249	-0.549051	-0.194418	-0.428782	-0.509833	-0.119632	-0.325707	-0.470615	-1.495486	-2.378611	-3.489895	0.000000	0.000000	15.239375	2.333207	-13.330524	-4.135563	-23.390788	-24.163311	69.054397	76.220244	0.340147	19.941539	-3.142896	-18.230350	12.989113	54.344799	88.215549	-12.695895	-6.017102
4.482143	3.882721	-7.239065	88.676388	0.094480	0.719882	0.757009	-3.186627	2.723060	2.452810	6.940620	0.121137	30.762064	11.580731	0.000000	-1.148075	-2.273119	-8.091517	11.989671	0.209259	34.287078	1.577019	0.000000	-0.207368	-0.208454	-0.792433	-0.385103	-0.277244	-0.841961	-0.340685	-0.506835	-0.841961	-0.237001	-0.506835	-0.693379	-0.192562	-0.425079	-0.643852	-0.118490	-0.322895	-0.594325	-1.481209	-2.358074	-4.407277	0.000000	0.000000	15.416747	2.768873	-12.806776	-2.227538	-24.622212	-25.647469	73.256439	72.061488	0.042104	22.454209	-2.505894	-18.569019	12.735249	55.789123	88.333229	-12.955345	-5.645397
